<svg width="85.000000" height="85.000000" viewBox="0 0 85 85" fill="none" xmlns="http://www.w3.org/2000/svg" xmlns:xlink="http://www.w3.org/1999/xlink">
	<desc>
			Created with Pixso.
	</desc>
	<defs>
		<filter id="filter_474_3112_dd" x="0.000000" y="0.000000" width="85.000000" height="85.000000" filterUnits="userSpaceOnUse" color-interpolation-filters="sRGB">
			<feFlood flood-opacity="0" result="BackgroundImageFix"/>
			<feColorMatrix in="SourceAlpha" type="matrix" values="0 0 0 0 0 0 0 0 0 0 0 0 0 0 0 0 0 0 127 0" result="hardAlpha"/>
			<feOffset dx="2" dy="11"/>
			<feGaussianBlur stdDeviation="10"/>
			<feComposite in2="hardAlpha" operator="out" k2="-1" k3="1"/>
			<feColorMatrix type="matrix" values="0 0 0 0 0.2 0 0 0 0 0.2 0 0 0 0 0.2 0 0 0 0.078 0"/>
			<feBlend mode="normal" in2="BackgroundImageFix" result="effect_dropShadow_1"/>
			<feBlend mode="normal" in="SourceGraphic" in2="effect_dropShadow_1" result="shape"/>
		</filter>
		<clipPath id="clip474_3112">
			<rect id="Navbar / email 1" width="25.000000" height="25.000000" transform="translate(28.000000 19.000000)" fill="white" fill-opacity="0"/>
		</clipPath>
	</defs>
	<g filter="url(#filter_474_3112_dd)">
		<rect id="Navbar / email 1" width="25.000000" height="25.000000" transform="translate(28.000000 19.000000)" fill="#FFFFFF" fill-opacity="0"/>
		<g clip-path="url(#clip474_3112)">
			<path id="Vector" d="M44.19 32.53L42.1 34.63C41.25 35.49 39.76 35.5 38.89 34.63L36.8 32.53L29.28 40.08C29.56 40.21 29.86 40.28 30.19 40.28L50.8 40.28C51.13 40.28 51.43 40.21 51.71 40.08L44.19 32.53Z" fill="#FFFFFF" fill-opacity="1.000000" fill-rule="nonzero"/>
			<path id="Vector" d="M50.8 22.71L30.19 22.71C29.86 22.71 29.56 22.78 29.28 22.91L37.31 30.98C37.31 30.98 37.31 30.98 37.31 30.98C37.31 30.98 37.31 30.98 37.31 30.98L39.93 33.6C40.2 33.88 40.79 33.88 41.06 33.6L43.68 30.98C43.68 30.98 43.68 30.98 43.68 30.98C43.68 30.98 43.68 30.98 43.68 30.98L51.71 22.91C51.43 22.78 51.13 22.71 50.8 22.71Z" fill="#FFFFFF" fill-opacity="1.000000" fill-rule="nonzero"/>
			<path id="Vector" d="M28.23 23.94C28.08 24.23 28 24.56 28 24.9L28 38.09C28 38.43 28.08 38.76 28.23 39.05L35.76 31.5L28.23 23.94Z" fill="#FFFFFF" fill-opacity="1.000000" fill-rule="nonzero"/>
			<path id="Vector" d="M52.76 23.94L45.23 31.5L52.76 39.05C52.91 38.76 52.99 38.43 52.99 38.09L52.99 24.9C52.99 24.56 52.91 24.23 52.76 23.94Z" fill="#FFFFFF" fill-opacity="1.000000" fill-rule="nonzero"/>
		</g>
	</g>
</svg>
