<svg width="25.000000" height="25.000000" viewBox="0 0 25 25" fill="none" xmlns="http://www.w3.org/2000/svg" xmlns:xlink="http://www.w3.org/1999/xlink">
	<desc>
			Created with Pixso.
	</desc>
	<defs>
		<clipPath id="clip474_3118">
			<rect id="Navbar / location 1" width="25.000000" height="25.000000" fill="white" fill-opacity="0"/>
		</clipPath>
	</defs>
	<rect id="Navbar / location 1" width="25.000000" height="25.000000" fill="#FFFFFF" fill-opacity="0"/>
	<g clip-path="url(#clip474_3118)">
		<path id="Vector" d="M12.5 0C8.1 0 4.44 3.53 4.44 8.05C4.44 9.77 4.95 11.3 5.95 12.74L11.88 22C12.17 22.45 12.82 22.45 13.11 22L19.07 12.71C20.04 11.34 20.55 9.73 20.55 8.05C20.55 3.61 16.94 0 12.5 0ZM12.5 11.71C10.48 11.71 8.83 10.07 8.83 8.05C8.83 6.03 10.48 4.39 12.5 4.39C14.51 4.39 16.16 6.03 16.16 8.05C16.16 10.07 14.51 11.71 12.5 11.71Z" fill="#FFFFFF" fill-opacity="1.000000" fill-rule="nonzero"/>
		<path id="Vector" d="M18.22 16.83L14.53 22.59C13.58 24.08 11.41 24.08 10.46 22.59L6.76 16.83C3.51 17.58 1.51 18.96 1.51 20.6C1.51 23.46 7.17 25 12.5 25C17.82 25 23.48 23.46 23.48 20.6C23.48 18.95 21.48 17.58 18.22 16.83ZM18.45 17.4Q19.43 17.64 20.23 17.96Q21.15 18.34 21.78 18.79Q22.39 19.22 22.7 19.69Q22.95 20.09 22.98 20.5Q22.98 20.55 22.98 20.6Q22.98 20.7 22.97 20.79Q22.89 21.49 22.18 22.12Q21.36 22.85 19.82 23.4Q18.33 23.93 16.39 24.22Q14.49 24.5 12.5 24.5Q10.5 24.5 8.6 24.22Q6.66 23.93 5.17 23.4Q3.63 22.85 2.81 22.12Q2.1 21.49 2.02 20.79Q2.01 20.7 2.01 20.6Q2.01 20.55 2.01 20.5Q2.04 20.09 2.29 19.69Q2.6 19.22 3.21 18.79Q3.84 18.34 4.76 17.97Q5.56 17.64 6.53 17.4L10.04 22.86Q10.27 23.23 10.59 23.5Q10.83 23.72 11.13 23.87Q11.42 24.02 11.73 24.11Q12.1 24.21 12.49 24.21Q12.89 24.21 13.26 24.11Q13.57 24.02 13.86 23.87Q14.15 23.72 14.39 23.51Q14.71 23.24 14.95 22.86L14.95 22.86L18.45 17.4Z" fill="#FFFFFF" fill-opacity="1.000000" fill-rule="evenodd"/>
	</g>
</svg>
