<svg width="25.000000" height="25.000000" viewBox="0 0 25 25" fill="none" xmlns="http://www.w3.org/2000/svg" xmlns:xlink="http://www.w3.org/1999/xlink">
	<desc>
			Created with Pixso.
	</desc>
	<defs>
		<clipPath id="clip474_3115">
			<rect id="Navbar / phone-call 1" width="25.000000" height="25.000000" fill="white" fill-opacity="0"/>
		</clipPath>
	</defs>
	<rect id="Navbar / phone-call 1" width="25.000000" height="25.000000" fill="#FFFFFF" fill-opacity="0"/>
	<g clip-path="url(#clip474_3115)">
		<path id="Vector" d="M12.49 0C5.6 0 0 5.6 0 12.5C0 19.39 5.6 24.99 12.49 24.99C15.27 24.99 17.9 24.1 20.13 22.39C21.01 21.62 21 20.51 20.59 19.76C20.33 19.28 19.94 18.95 19.48 18.79L19.69 18.56C20 18.21 20.14 17.74 20.06 17.28C19.99 16.81 19.72 16.41 19.31 16.17L16.56 14.56C15.94 14.2 15.08 14.33 14.6 14.87L13.99 15.56C13.89 15.67 13.76 15.73 13.61 15.73C13.43 15.73 13.27 15.65 13.17 15.5L9.82 10.44C9.73 10.31 9.71 10.16 9.75 10.01C9.79 9.86 9.89 9.75 10.03 9.68L10.99 9.24C11.67 8.92 12.03 8.17 11.86 7.45L11.11 4.35C10.89 3.43 9.8 2.9 8.93 3.3L8.08 3.7C6.81 4.29 5.88 5.4 5.52 6.75L5.36 7.33C5.08 8.39 5.18 9.52 5.64 10.51L6.41 12.17C7.54 14.61 9.08 16.8 10.99 18.69L11.62 19.31C12.57 20.25 13.82 20.78 15.14 20.83L15.31 20.83C16.46 20.83 17.57 20.45 18.47 19.77C18.49 19.77 18.51 19.77 18.53 19.77C19.23 19.57 19.58 20.09 19.67 20.25C19.88 20.64 19.89 21.21 19.47 21.59C17.45 23.14 15.04 23.95 12.5 23.95C6.18 23.95 1.04 18.81 1.04 12.5C1.04 6.18 6.18 1.04 12.5 1.04C18.81 1.04 23.95 6.18 23.95 12.5C23.95 12.78 24.19 13.02 24.47 13.02C24.76 13.02 25 12.78 25 12.5C24.99 5.6 19.39 0 12.49 0Z" fill="#FFFFFF" fill-opacity="1.000000" fill-rule="nonzero"/>
	</g>
</svg>
