<svg width="38.000000" height="38.000000" viewBox="0 0 38 38" fill="none" xmlns="http://www.w3.org/2000/svg" xmlns:xlink="http://www.w3.org/1999/xlink">
	<desc>
			Created with Pixso.
	</desc>
	<defs>
		<filter id="filter_673_46933_dd" x="0.000000" y="0.000000" width="38.000000" height="38.000000" filterUnits="userSpaceOnUse" color-interpolation-filters="sRGB">
			<feFlood flood-opacity="0" result="BackgroundImageFix"/>
			<feColorMatrix in="SourceAlpha" type="matrix" values="0 0 0 0 0 0 0 0 0 0 0 0 0 0 0 0 0 0 127 0" result="hardAlpha"/>
			<feOffset dx="0" dy="4"/>
			<feGaussianBlur stdDeviation="1.33333"/>
			<feComposite in2="hardAlpha" operator="out" k2="-1" k3="1"/>
			<feColorMatrix type="matrix" values="0 0 0 0 0 0 0 0 0 0 0 0 0 0 0 0 0 0 0.25 0"/>
			<feBlend mode="normal" in2="BackgroundImageFix" result="effect_dropShadow_1"/>
			<feBlend mode="normal" in="SourceGraphic" in2="effect_dropShadow_1" result="shape"/>
		</filter>
		<filter id="filter_40_2195_dd" x="-11.000000" y="-15.183594" width="66.000000" height="62.367188" filterUnits="userSpaceOnUse" color-interpolation-filters="sRGB">
			<feFlood flood-opacity="0" result="BackgroundImageFix"/>
			<feColorMatrix in="SourceAlpha" type="matrix" values="0 0 0 0 0 0 0 0 0 0 0 0 0 0 0 0 0 0 127 0" result="hardAlpha"/>
			<feOffset dx="3" dy="1"/>
			<feGaussianBlur stdDeviation="6"/>
			<feComposite in2="hardAlpha" operator="out" k2="-1" k3="1"/>
			<feColorMatrix type="matrix" values="0 0 0 0 0 0 0 0 0 0 0 0 0 0 0 0 0 0 0.2 0"/>
			<feBlend mode="normal" in2="BackgroundImageFix" result="effect_dropShadow_1"/>
			<feBlend mode="normal" in="SourceGraphic" in2="effect_dropShadow_1" result="shape"/>
		</filter>
		<clipPath id="clip673_46933">
			<rect id="Navbar / phone" width="30.000000" height="30.000000" transform="translate(4.000000 0.000000)" fill="white" fill-opacity="0"/>
		</clipPath>
	</defs>
	<g filter="url(#filter_673_46933_dd)">
		<rect id="Navbar / phone" width="30.000000" height="30.000000" transform="translate(4.000000 0.000000)" fill="#FFFFFF" fill-opacity="0"/>
		<g clip-path="url(#clip673_46933)">
			<g filter="url(#filter_40_2195_dd)">
				<path id="Vector" d="M21.63 7.96C21.63 8.45 21.24 8.84 20.75 8.84C20.27 8.84 19.87 8.45 19.87 7.96C19.87 7.48 20.27 7.08 20.75 7.08C21.24 7.08 21.63 7.48 21.63 7.96Z" fill="#FFFFFF" fill-opacity="1.000000" fill-rule="evenodd"/>
				<path id="Vector" d="M25.15 7.96C25.15 8.45 24.75 8.84 24.27 8.84C23.78 8.84 23.39 8.45 23.39 7.96C23.39 7.48 23.78 7.08 24.27 7.08C24.75 7.08 25.15 7.48 25.15 7.96Z" fill="#FFFFFF" fill-opacity="1.000000" fill-rule="evenodd"/>
				<path id="Vector" d="M28.66 7.96C28.66 8.45 28.27 8.84 27.78 8.84C27.3 8.84 26.91 8.45 26.91 7.96C26.91 7.48 27.3 7.08 27.78 7.08C28.27 7.08 28.66 7.48 28.66 7.96Z" fill="#FFFFFF" fill-opacity="1.000000" fill-rule="evenodd"/>
				<path id="Vector" d="M23.75 28.18C25.2 28.18 26.38 27 26.38 25.54L26.38 22.03C26.38 21.65 26.14 21.31 25.78 21.19L20.52 19.43C20.26 19.35 19.98 19.39 19.75 19.54L17.51 21.03C15.11 19.89 12.27 17.08 11.15 14.72L12.64 12.48C12.79 12.26 12.82 11.97 12.74 11.72L10.98 6.45C10.86 6.1 10.53 5.85 10.15 5.85L6.63 5.85C5.18 5.85 4 7.03 4 8.48C4 13.33 6.2 18.32 10.05 22.15C13.9 25.98 18.89 28.18 23.75 28.18ZM6.63 7.61L9.51 7.61L10.94 11.86L9.42 14.14C9.26 14.38 9.22 14.69 9.33 14.96C9.92 16.42 11.09 18.06 12.62 19.58C14.15 21.1 15.81 22.25 17.27 22.84C17.54 22.95 17.85 22.92 18.09 22.76L20.37 21.24L24.62 22.66L24.62 25.54C24.62 26.03 24.24 26.42 23.75 26.42C14.5 26.42 5.75 17.7 5.75 8.48C5.75 7.99 6.14 7.61 6.63 7.61Z" fill="#FFFFFF" fill-opacity="1.000000" fill-rule="nonzero"/>
				<path id="Vector" d="M20.42 17.56C20.74 17.7 21.12 17.63 21.37 17.37L24.63 14.12L27.78 14.12C31.21 14.12 34 11.36 34 7.96C34 4.57 31.21 1.81 27.78 1.81L20.75 1.81C17.36 1.81 14.6 4.57 14.6 7.96C14.6 11.06 16.9 13.63 19.87 14.05L19.87 16.75C19.87 17.11 20.09 17.43 20.42 17.56ZM16.36 7.96C16.36 5.54 18.33 3.57 20.75 3.57L27.78 3.57C30.24 3.57 32.24 5.54 32.24 7.96C32.24 10.39 30.24 12.36 27.78 12.36L24.27 12.36C24.04 12.36 23.81 12.45 23.65 12.62L21.63 14.63L21.63 13.24C21.63 12.75 21.24 12.36 20.75 12.36C18.33 12.36 16.36 10.39 16.36 7.96Z" fill="#FFFFFF" fill-opacity="1.000000" fill-rule="nonzero"/>
			</g>
		</g>
	</g>
</svg>
