<svg width="120.648926" height="55.000000" viewBox="0 0 120.649 55" fill="none" xmlns="http://www.w3.org/2000/svg" xmlns:xlink="http://www.w3.org/1999/xlink">
	<desc>
			Created with Pixso.
	</desc>
	<defs/>
	<path id="Vector" d="M107.65 21.11C108.15 21.2 108.65 20.81 108.66 20.27C108.69 19.12 108.73 18.41 108.47 17.2C107.5 12.81 105.03 12.7 104.06 12.33C102.05 11.57 99.99 10.79 98.57 9.07C96.26 6.26 96.87 2.42 97.07 1.38C99.55 4.93 102.07 3.92 104.6 5.53C107.13 7.15 108.33 9.7 108.08 12.54C105.51 8.06 102.34 10.11 98.97 5.61C100.99 8.96 103.5 9.37 104.97 10.43C106.04 11.2 106.58 12.1 107.81 13.69C108.42 14.49 108.91 15.39 109.24 16.34C109.53 15.52 109.93 14.74 110.43 14.03C113.13 10.13 113.99 10.44 115.77 9.36C117.01 8.61 118.01 7.57 118.73 6.37C115.74 10.36 112.84 8.6 110.55 12.59C110.33 10.1 111.36 7.77 113.67 6.29C115.95 4.84 118.21 5.75 120.44 2.56C120.62 3.49 121.17 6.95 119.09 9.47C117.82 11.01 115.96 11.72 114.16 12.41C112.75 12.94 112.08 12.71 110.87 14.92C109.47 17.5 109.82 20.29 109.82 20.26C109.83 20.79 110.31 21.18 110.83 21.11C109.93 21.41 108.33 21.23 107.65 21.11Z" fill="#00730C" fill-opacity="1.000000" fill-rule="evenodd"/>
	<path id="Plants" d="M28.69 33.58C28.69 38.56 30.92 41.06 35.37 41.06Q36.25 41.06 37.09 40.93C37.7 40.86 38.14 40.63 38.41 40.25C38.68 39.88 38.81 39.36 38.81 38.7C38.81 37.92 38.74 37.41 38.61 37.18C38.48 36.91 38.22 36.8 37.85 36.86L37.29 36.93L36.69 36.93C34.69 36.93 33.69 35.74 33.69 33.34L33.69 14.66C33.69 12.98 32.85 12.14 31.17 12.14C29.52 12.14 28.69 12.98 28.69 14.66L28.69 33.58ZM3.75 40.36Q4.39 40.98 5.64 40.98C7.34 40.98 8.2 40.09 8.2 38.34L8.2 30.1L15.32 30.1C18.41 30.1 20.8 29.32 22.48 27.78Q23.03 27.26 23.46 26.65Q25 24.5 25 21.26C25 18.48 24.16 16.32 22.48 14.78Q22.46 14.77 22.45 14.76Q19.94 12.46 15.32 12.46L5.68 12.46C3.94 12.46 3.08 13.32 3.08 15.06L3.08 38.34Q3.08 39.7 3.75 40.36ZM87.94 33.38C87.94 38.5 90.52 41.06 95.7 41.06C96.12 41.06 96.62 41 97.18 40.9C97.74 40.82 98.19 40.72 98.54 40.62C98.99 40.46 99.3 40.18 99.46 39.78C99.64 39.35 99.74 38.87 99.74 38.34C99.74 37.64 99.63 37.19 99.42 36.98C99.2 36.74 98.94 36.63 98.62 36.66C98.35 36.68 98.04 36.74 97.7 36.82C97.35 36.9 96.95 36.93 96.5 36.93C95.24 36.93 94.34 36.62 93.78 35.98C93.22 35.34 92.94 34.38 92.94 33.09L92.94 24.86L97.18 24.86C98.51 24.86 99.18 24.23 99.18 22.98C99.18 21.72 98.51 21.1 97.18 21.1L92.94 21.1L92.94 17.45Q92.94 16.17 92.3 15.55Q91.68 14.94 90.46 14.94C88.78 14.94 87.94 15.78 87.94 17.45L87.94 21.1L85.86 21.1C84.52 21.1 83.86 21.72 83.86 22.98C83.86 24.23 84.52 24.86 85.86 24.86L87.94 24.86L87.94 33.38ZM14.52 26.06L8.2 26.06L8.2 16.5L14.52 16.5Q17.68 16.5 19.03 18.06Q20.04 19.23 20.04 21.26Q20.04 23.32 19.01 24.5Q17.66 26.06 14.52 26.06ZM44.1 40.25C45.22 40.79 46.49 41.06 47.9 41.06Q49.91 41.06 51.38 40.16Q51.4 40.15 51.42 40.14C52.41 39.5 53.13 38.63 53.58 37.54L53.58 38.41Q53.58 39.8 54.27 40.43Q54.86 40.98 55.94 40.98C57.49 40.98 58.26 40.12 58.26 38.41L58.26 28.82C58.26 26.04 57.57 24 56.18 22.7C54.8 21.36 52.68 20.7 49.82 20.7C48.89 20.7 47.85 20.8 46.7 21.02C45.58 21.23 44.41 21.59 43.18 22.1C42.57 22.34 42.16 22.71 41.94 23.22C41.76 23.72 41.73 24.23 41.86 24.74C42.02 25.22 42.32 25.58 42.74 25.82C43.17 26.03 43.7 25.99 44.34 25.7C45.33 25.24 46.26 24.92 47.14 24.74C48.05 24.55 48.89 24.46 49.66 24.46C51.05 24.46 52.04 24.75 52.62 25.34C53.21 25.92 53.5 26.88 53.5 28.22L53.5 29.06L52.1 29.06Q47.86 29.06 45.34 29.62C43.66 29.99 42.45 30.6 41.7 31.46C40.96 32.28 40.58 33.41 40.58 34.86C40.58 36.03 40.89 37.08 41.5 38.02C42.14 38.95 43.01 39.7 44.1 40.25ZM64 40.38Q64.62 40.98 65.82 40.98C67.5 40.98 68.34 40.12 68.34 38.41L68.34 29.66C68.34 28.14 68.76 26.92 69.62 26.02Q70 25.61 70.46 25.32Q71.58 24.62 73.14 24.62C74.34 24.62 75.22 24.96 75.78 25.66C76.36 26.35 76.66 27.46 76.66 28.98L76.66 38.41C76.66 40.12 77.5 40.98 79.18 40.98C80.83 40.98 81.66 40.12 81.66 38.41L81.66 28.74C81.66 23.38 79.35 20.7 74.74 20.7Q72.81 20.7 71.22 21.42Q71.06 21.49 70.9 21.58C69.78 22.16 68.88 23.02 68.22 24.14L68.22 23.3C68.22 21.62 67.4 20.78 65.78 20.78C64.15 20.78 63.34 21.62 63.34 23.3L63.34 38.41Q63.34 39.74 64 40.38ZM52.18 36.25C51.33 37.16 50.25 37.62 48.94 37.62C47.85 37.62 47 37.34 46.38 36.78C45.77 36.22 45.46 35.5 45.46 34.62C45.46 33.6 45.94 32.91 46.9 32.54C47.89 32.14 49.64 31.94 52.14 31.94L53.5 31.94L53.5 32.82C53.5 34.2 53.06 35.35 52.18 36.25Z" fill="#0B0B0B" fill-opacity="1.000000" fill-rule="evenodd"/>
	<path id="Plants" d="M105.61 40.7C106.89 40.93 108.1 41.06 109.25 41.06C111.78 41.06 113.81 40.51 115.33 39.41C116.85 38.3 117.61 36.76 117.61 34.82C117.61 33.38 117.15 32.23 116.25 31.38C115.37 30.52 114.06 29.94 112.33 29.62L108.33 28.86C106.81 28.59 106.05 27.87 106.05 26.7C106.05 25.95 106.35 25.35 106.97 24.9C107.61 24.44 108.58 24.22 109.89 24.22C110.58 24.22 111.3 24.31 112.05 24.5C112.82 24.68 113.62 24.99 114.45 25.42C115.01 25.68 115.5 25.74 115.93 25.58C116.35 25.39 116.66 25.1 116.85 24.7C117.06 24.27 117.11 23.83 117.01 23.38Q116.97 23.16 116.88 22.97Q116.66 22.54 116.13 22.26C114.29 21.22 112.19 20.7 109.85 20.7C108.22 20.7 106.78 20.95 105.53 21.46C104.27 21.96 103.29 22.68 102.57 23.62C101.87 24.55 101.53 25.66 101.53 26.94C101.53 29.82 103.22 31.58 106.61 32.22L110.61 32.98C112.26 33.3 113.09 34.02 113.09 35.14C113.09 35.86 112.77 36.44 112.13 36.9C111.51 37.32 110.57 37.54 109.29 37.54C108.38 37.54 107.46 37.44 106.53 37.25C105.59 37.04 104.59 36.68 103.53 36.18C102.97 35.91 102.47 35.87 102.05 36.06C101.65 36.24 101.35 36.55 101.17 36.98C101.01 37.38 100.99 37.82 101.13 38.3C101.26 38.75 101.61 39.14 102.17 39.46C103.18 40.04 104.33 40.46 105.61 40.7Z" fill="#00730C" fill-opacity="1.000000" fill-rule="evenodd"/>
</svg>
